<svg width="191" height="46" viewBox="0 0 191 46" fill="none" xmlns="http://www.w3.org/2000/svg">
<path d="M15.1055 44.2196C17.1793 37.6517 25.5238 26.0095 41.8773 32.8879C40.0802 38.6667 30.8191 48.662 15.1055 44.2196Z" fill="black"/>
<path d="M1.68505 15.7344C-1.4257 21.7351 -1.44343 36.2443 12.3504 43.0511C16.261 36.513 17.5942 19.8543 1.68505 15.7344Z" fill="black"/>
<path d="M29.5457 1.88596C27.4469 8.44586 19.0583 20.0558 2.731 13.1143C4.55007 7.34247 13.8491 -2.61699 29.5457 1.88596Z" fill="black"/>
<path d="M42.8589 30.4193C45.9924 24.4306 46.0653 9.92156 32.2974 3.06161C28.362 9.58457 26.9656 26.238 42.8589 30.4193Z" fill="black"/>
<path d="M64.2778 34.9465C61.1276 34.9465 58.7712 34.1775 57.2086 32.6397C55.6707 31.1018 54.9018 28.9191 54.9018 26.0914V18.5385C54.9018 15.6861 55.6707 13.5033 57.2086 11.9903C58.7712 10.4524 61.1276 9.68347 64.2778 9.68347C67.4279 9.68347 69.7843 10.4524 71.3469 11.9903C72.9096 13.5033 73.6909 15.6861 73.6909 18.5385V26.0914C73.6909 28.9191 72.9096 31.1018 71.3469 32.6397C69.7843 34.1775 67.4279 34.9465 64.2778 34.9465ZM64.2778 31.8212C66.2125 31.8212 67.6759 31.3251 68.6681 30.3329C69.6603 29.3407 70.1563 27.8897 70.1563 25.9798V18.6502C70.1563 16.7154 69.6603 15.2644 68.6681 14.297C67.6759 13.3049 66.2125 12.8088 64.2778 12.8088C62.3926 12.8088 60.9416 13.3049 59.9246 14.297C58.9325 15.2644 58.4364 16.7154 58.4364 18.6502V25.9798C58.4364 27.8897 58.9325 29.3407 59.9246 30.3329C60.9416 31.3251 62.3926 31.8212 64.2778 31.8212ZM87.4026 34.9465C86.4848 34.9465 85.5174 34.8225 84.5005 34.5744C83.4835 34.3264 82.665 34.0039 82.0449 33.6071L81.9333 30.6678C82.6278 31.0646 83.3843 31.3747 84.2028 31.5979C85.0462 31.7964 85.8275 31.8956 86.5468 31.8956C87.911 31.8956 88.9032 31.4987 89.5233 30.705C90.1682 29.8864 90.4907 28.671 90.4907 27.0588V23.0405C90.4907 21.6267 90.2426 20.5973 89.7466 19.9524C89.2753 19.2827 88.5436 18.9478 87.5514 18.9478C86.708 18.9478 85.8523 19.1959 84.9842 19.6919C84.1408 20.188 83.0618 21.0438 81.7472 22.2592L81.6728 19.1711C82.4913 18.4269 83.2603 17.8068 83.9796 17.3107C84.6989 16.8147 85.4182 16.455 86.1376 16.2318C86.8817 15.9837 87.663 15.8597 88.4815 15.8597C90.317 15.8597 91.6937 16.4178 92.6114 17.534C93.554 18.6502 94.0253 20.3616 94.0253 22.6684V27.468C94.0253 29.8988 93.4548 31.7591 92.3138 33.049C91.1976 34.314 89.5605 34.9465 87.4026 34.9465ZM79.3288 41.3831C79.0808 41.3831 78.9568 41.2467 78.9568 40.9739V20.5849C78.9568 19.9896 78.932 19.3447 78.8823 18.6502C78.8327 17.9556 78.7707 17.3231 78.6963 16.7526C78.6715 16.455 78.7955 16.3062 79.0684 16.3062H81.5984C81.8712 16.3062 82.0201 16.4302 82.0449 16.6782C82.0945 16.8519 82.1441 17.0999 82.1937 17.4224C82.2433 17.7448 82.2805 18.0673 82.3053 18.3897C82.3301 18.6874 82.3301 18.9106 82.3053 19.0594L82.4913 20.9942V40.9739C82.4913 41.2467 82.3549 41.3831 82.0821 41.3831H79.3288ZM105.6 34.9465C104.285 34.9465 103.231 34.7356 102.437 34.314C101.643 33.8675 101.073 33.1978 100.726 32.3048C100.378 31.4119 100.205 30.2957 100.205 28.9563V19.3199H97.377C97.1042 19.3199 96.9677 19.1835 96.9677 18.9106V16.6782C96.9677 16.4302 97.1042 16.3062 97.377 16.3062H100.279L100.726 11.8414C100.75 11.5686 100.899 11.4322 101.172 11.4322H103.33C103.578 11.4322 103.702 11.5686 103.702 11.8414L103.739 16.3062H109.134C109.407 16.3062 109.543 16.4302 109.543 16.6782V18.9106C109.543 19.1835 109.407 19.3199 109.134 19.3199H103.739V28.8075C103.739 29.9236 103.938 30.7174 104.335 31.1886C104.731 31.6599 105.401 31.8956 106.344 31.8956C106.84 31.8956 107.323 31.846 107.795 31.7467C108.291 31.6227 108.725 31.4739 109.097 31.3003C109.246 31.2507 109.357 31.2507 109.432 31.3003C109.531 31.3499 109.581 31.4491 109.581 31.5979V33.8675C109.581 34.0907 109.469 34.2396 109.246 34.314C108.799 34.4876 108.266 34.6364 107.646 34.7604C107.051 34.8845 106.369 34.9465 105.6 34.9465ZM120.072 34.9465C117.592 34.9465 115.706 34.376 114.417 33.235C113.127 32.094 112.482 30.4197 112.482 28.2122V23.1521C112.482 20.7709 113.114 18.9602 114.379 17.72C115.669 16.4798 117.554 15.8597 120.035 15.8597C122.515 15.8597 124.388 16.4674 125.653 17.6828C126.943 18.8982 127.588 20.6593 127.588 22.9661V25.8682C127.588 26.1162 127.464 26.2402 127.216 26.2402H115.979V27.4308C115.979 28.9935 116.314 30.1345 116.984 30.8538C117.654 31.5731 118.732 31.9328 120.221 31.9328C121.337 31.9328 122.193 31.7591 122.788 31.4119C123.408 31.0398 123.718 30.4941 123.718 29.7748C123.718 29.502 123.855 29.3655 124.127 29.3655H126.881C127.079 29.3655 127.203 29.4772 127.253 29.7004C127.352 31.3623 126.757 32.6521 125.467 33.5698C124.202 34.4876 122.404 34.9465 120.072 34.9465ZM115.979 23.4498H124.09V23.2637C124.09 21.7507 123.755 20.6469 123.086 19.9524C122.416 19.2331 121.424 18.8734 120.109 18.8734C118.72 18.8734 117.678 19.2455 116.984 19.9896C116.314 20.7089 115.979 21.8127 115.979 23.3009V23.4498ZM129.996 34.5C129.847 34.5 129.747 34.4504 129.698 34.3512C129.648 34.252 129.673 34.1403 129.772 34.0163L136.135 25.124L130.182 16.7526C130.082 16.6286 130.058 16.5294 130.107 16.455C130.182 16.3558 130.293 16.3062 130.442 16.3062H133.716C133.915 16.3062 134.063 16.3806 134.163 16.5294L136.618 20.1012C136.891 20.5229 137.176 20.9694 137.474 21.4406C137.796 21.9119 138.082 22.3584 138.33 22.7801H138.367C138.689 22.3088 139.012 21.8375 139.334 21.3662C139.657 20.8701 139.979 20.3865 140.302 19.9152L142.608 16.5294C142.732 16.3806 142.894 16.3062 143.092 16.3062H146.18C146.354 16.3062 146.465 16.3558 146.515 16.455C146.565 16.5294 146.54 16.6286 146.441 16.7526L140.488 25.0496L146.962 34.0163C147.061 34.1403 147.073 34.252 146.999 34.3512C146.949 34.4504 146.85 34.5 146.701 34.5H143.427C143.229 34.5 143.08 34.4256 142.98 34.2768L140.636 30.9282C140.24 30.3577 139.843 29.7872 139.446 29.2167C139.074 28.6214 138.689 28.0385 138.292 27.468H138.255C137.908 28.0385 137.536 28.6214 137.139 29.2167C136.767 29.7872 136.395 30.3577 136.023 30.9282L133.716 34.2768C133.667 34.376 133.592 34.438 133.493 34.4628C133.418 34.4876 133.332 34.5 133.232 34.5H129.996ZM150.435 34.5C150.187 34.5 150.063 34.3636 150.063 34.0907V16.6782C150.063 16.4302 150.187 16.3062 150.435 16.3062H153.188C153.461 16.3062 153.597 16.4302 153.597 16.6782V34.0907C153.597 34.3636 153.461 34.5 153.188 34.5H150.435ZM151.811 13.3669C151.067 13.3669 150.509 13.1685 150.137 12.7716C149.79 12.3747 149.616 11.8538 149.616 11.2089V10.7997C149.616 10.1548 149.79 9.63387 150.137 9.237C150.509 8.84013 151.067 8.6417 151.811 8.6417C152.58 8.6417 153.138 8.84013 153.486 9.237C153.833 9.63387 154.007 10.1548 154.007 10.7997V11.2089C154.007 11.8538 153.833 12.3747 153.486 12.7716C153.138 13.1685 152.58 13.3669 151.811 13.3669ZM165.551 34.9465C164.236 34.9465 163.182 34.7356 162.388 34.314C161.595 33.8675 161.024 33.1978 160.677 32.3048C160.33 31.4119 160.156 30.2957 160.156 28.9563V19.3199H157.328C157.056 19.3199 156.919 19.1835 156.919 18.9106V16.6782C156.919 16.4302 157.056 16.3062 157.328 16.3062H160.23L160.677 11.8414C160.702 11.5686 160.851 11.4322 161.123 11.4322H163.281C163.529 11.4322 163.653 11.5686 163.653 11.8414L163.691 16.3062H169.086C169.358 16.3062 169.495 16.4302 169.495 16.6782V18.9106C169.495 19.1835 169.358 19.3199 169.086 19.3199H163.691V28.8075C163.691 29.9236 163.889 30.7174 164.286 31.1886C164.683 31.6599 165.353 31.8956 166.295 31.8956C166.791 31.8956 167.275 31.846 167.746 31.7467C168.242 31.6227 168.676 31.4739 169.048 31.3003C169.197 31.2507 169.309 31.2507 169.383 31.3003C169.482 31.3499 169.532 31.4491 169.532 31.5979V33.8675C169.532 34.0907 169.42 34.2396 169.197 34.314C168.751 34.4876 168.217 34.6364 167.597 34.7604C167.002 34.8845 166.32 34.9465 165.551 34.9465ZM176.359 41.3831C176.061 41.3831 175.974 41.2219 176.098 40.8995L178.703 34.314L171.857 16.7526C171.733 16.455 171.82 16.3062 172.117 16.3062H175.131C175.329 16.3062 175.466 16.4054 175.54 16.6038L178.703 25.1985C179 25.9674 179.286 26.7735 179.559 27.6169C179.831 28.4354 180.092 29.2539 180.34 30.0725H180.414C180.662 29.2539 180.935 28.4354 181.233 27.6169C181.53 26.7983 181.816 25.9922 182.089 25.1985L185.214 16.6038C185.288 16.4054 185.449 16.3062 185.698 16.3062H188.562C188.686 16.3062 188.773 16.3558 188.823 16.455C188.897 16.5294 188.91 16.6286 188.86 16.7526L179.521 41.0855C179.447 41.2839 179.31 41.3831 179.112 41.3831H176.359Z" fill="black"/>
</svg>
